<svg xmlns="http://www.w3.org/2000/svg" width="241" height="255" viewBox="0 0 241 255">
  <path id="Union_124" data-name="Union 124" d="M238,253.5a1.5,1.5,0,1,1,1.5,1.5A1.5,1.5,0,0,1,238,253.5Zm-14,0a1.5,1.5,0,1,1,1.5,1.5A1.5,1.5,0,0,1,224,253.5Zm-14,0a1.5,1.5,0,1,1,1.5,1.5A1.5,1.5,0,0,1,210,253.5Zm-14,0a1.5,1.5,0,1,1,1.5,1.5A1.5,1.5,0,0,1,196,253.5Zm-14,0a1.5,1.5,0,1,1,1.5,1.5A1.5,1.5,0,0,1,182,253.5Zm-14,0a1.5,1.5,0,1,1,1.5,1.5A1.5,1.5,0,0,1,168,253.5Zm-14,0a1.5,1.5,0,1,1,1.5,1.5A1.5,1.5,0,0,1,154,253.5Zm-14,0a1.5,1.5,0,1,1,1.5,1.5A1.5,1.5,0,0,1,140,253.5Zm-14,0a1.5,1.5,0,1,1,1.5,1.5A1.5,1.5,0,0,1,126,253.5Zm-14,0a1.5,1.5,0,1,1,1.5,1.5A1.5,1.5,0,0,1,112,253.5Zm-14,0a1.5,1.5,0,1,1,1.5,1.5A1.5,1.5,0,0,1,98,253.5Zm-14,0a1.5,1.5,0,1,1,1.5,1.5A1.5,1.5,0,0,1,84,253.5Zm-14,0a1.5,1.5,0,1,1,1.5,1.5A1.5,1.5,0,0,1,70,253.5Zm-14,0a1.5,1.5,0,1,1,1.5,1.5A1.5,1.5,0,0,1,56,253.5Zm-14,0a1.5,1.5,0,1,1,1.5,1.5A1.5,1.5,0,0,1,42,253.5Zm-14,0a1.5,1.5,0,1,1,1.5,1.5A1.5,1.5,0,0,1,28,253.5Zm-14,0a1.5,1.5,0,1,1,1.5,1.5A1.5,1.5,0,0,1,14,253.5Zm-14,0A1.5,1.5,0,1,1,1.5,255,1.5,1.5,0,0,1,0,253.5Zm238-14a1.5,1.5,0,1,1,1.5,1.5A1.5,1.5,0,0,1,238,239.5Zm-14,0a1.5,1.5,0,1,1,1.5,1.5A1.5,1.5,0,0,1,224,239.5Zm-14,0a1.5,1.5,0,1,1,1.5,1.5A1.5,1.5,0,0,1,210,239.5Zm-14,0a1.5,1.5,0,1,1,1.5,1.5A1.5,1.5,0,0,1,196,239.5Zm-14,0a1.5,1.5,0,1,1,1.5,1.5A1.5,1.5,0,0,1,182,239.5Zm-14,0a1.5,1.5,0,1,1,1.5,1.5A1.5,1.5,0,0,1,168,239.5Zm-14,0a1.5,1.5,0,1,1,1.5,1.5A1.5,1.5,0,0,1,154,239.5Zm-14,0a1.5,1.5,0,1,1,1.5,1.5A1.5,1.5,0,0,1,140,239.5Zm-14,0a1.5,1.5,0,1,1,1.5,1.5A1.5,1.5,0,0,1,126,239.5Zm-14,0a1.5,1.5,0,1,1,1.5,1.5A1.5,1.5,0,0,1,112,239.5Zm-14,0a1.5,1.5,0,1,1,1.5,1.5A1.5,1.5,0,0,1,98,239.5Zm-14,0a1.5,1.5,0,1,1,1.5,1.5A1.5,1.5,0,0,1,84,239.5Zm-14,0a1.5,1.5,0,1,1,1.5,1.5A1.5,1.5,0,0,1,70,239.5Zm-14,0a1.5,1.5,0,1,1,1.5,1.5A1.5,1.5,0,0,1,56,239.5Zm-14,0a1.5,1.5,0,1,1,1.5,1.5A1.5,1.5,0,0,1,42,239.5Zm-14,0a1.5,1.5,0,1,1,1.5,1.5A1.5,1.5,0,0,1,28,239.5Zm-14,0a1.5,1.5,0,1,1,1.5,1.5A1.5,1.5,0,0,1,14,239.5Zm-14,0A1.5,1.5,0,1,1,1.5,241,1.5,1.5,0,0,1,0,239.5Zm238-14a1.5,1.5,0,1,1,1.5,1.5A1.5,1.5,0,0,1,238,225.5Zm-14,0a1.5,1.5,0,1,1,1.5,1.5A1.5,1.5,0,0,1,224,225.5Zm-14,0a1.5,1.5,0,1,1,1.5,1.5A1.5,1.5,0,0,1,210,225.5Zm-14,0a1.5,1.5,0,1,1,1.5,1.5A1.5,1.5,0,0,1,196,225.5Zm-14,0a1.5,1.5,0,1,1,1.5,1.5A1.5,1.5,0,0,1,182,225.5Zm-14,0a1.5,1.5,0,1,1,1.5,1.5A1.5,1.5,0,0,1,168,225.5Zm-14,0a1.5,1.5,0,1,1,1.5,1.5A1.5,1.5,0,0,1,154,225.5Zm-14,0a1.5,1.5,0,1,1,1.5,1.5A1.5,1.5,0,0,1,140,225.5Zm-14,0a1.5,1.5,0,1,1,1.5,1.5A1.5,1.5,0,0,1,126,225.5Zm-14,0a1.5,1.5,0,1,1,1.5,1.5A1.5,1.5,0,0,1,112,225.5Zm-14,0a1.5,1.5,0,1,1,1.5,1.5A1.5,1.5,0,0,1,98,225.5Zm-14,0a1.5,1.5,0,1,1,1.5,1.5A1.5,1.5,0,0,1,84,225.5Zm-14,0a1.5,1.5,0,1,1,1.5,1.5A1.5,1.5,0,0,1,70,225.5Zm-14,0a1.5,1.5,0,1,1,1.5,1.5A1.5,1.5,0,0,1,56,225.5Zm-14,0a1.5,1.5,0,1,1,1.5,1.5A1.5,1.5,0,0,1,42,225.5Zm-14,0a1.5,1.5,0,1,1,1.5,1.5A1.5,1.5,0,0,1,28,225.5Zm-14,0a1.5,1.5,0,1,1,1.5,1.5A1.5,1.5,0,0,1,14,225.5Zm-14,0A1.5,1.5,0,1,1,1.5,227,1.5,1.5,0,0,1,0,225.5Zm238-14a1.5,1.5,0,1,1,1.5,1.5A1.5,1.5,0,0,1,238,211.5Zm-14,0a1.5,1.5,0,1,1,1.5,1.5A1.5,1.5,0,0,1,224,211.5Zm-14,0a1.5,1.5,0,1,1,1.5,1.5A1.5,1.5,0,0,1,210,211.5Zm-14,0a1.5,1.5,0,1,1,1.5,1.5A1.5,1.5,0,0,1,196,211.5Zm-14,0a1.5,1.5,0,1,1,1.5,1.5A1.5,1.5,0,0,1,182,211.5Zm-14,0a1.5,1.5,0,1,1,1.5,1.5A1.5,1.5,0,0,1,168,211.5Zm-14,0a1.5,1.5,0,1,1,1.5,1.5A1.5,1.5,0,0,1,154,211.5Zm-14,0a1.5,1.5,0,1,1,1.5,1.5A1.5,1.5,0,0,1,140,211.5Zm-14,0a1.5,1.5,0,1,1,1.5,1.5A1.5,1.5,0,0,1,126,211.5Zm-14,0a1.5,1.5,0,1,1,1.5,1.5A1.5,1.5,0,0,1,112,211.5Zm-14,0a1.5,1.5,0,1,1,1.5,1.5A1.5,1.5,0,0,1,98,211.5Zm-14,0a1.5,1.5,0,1,1,1.5,1.5A1.5,1.5,0,0,1,84,211.5Zm-14,0a1.5,1.5,0,1,1,1.5,1.5A1.5,1.5,0,0,1,70,211.5Zm-14,0a1.5,1.5,0,1,1,1.5,1.5A1.5,1.5,0,0,1,56,211.5Zm-14,0a1.5,1.5,0,1,1,1.5,1.5A1.5,1.5,0,0,1,42,211.5Zm-14,0a1.5,1.5,0,1,1,1.5,1.5A1.5,1.5,0,0,1,28,211.5Zm-14,0a1.5,1.5,0,1,1,1.5,1.5A1.5,1.5,0,0,1,14,211.5Zm-14,0A1.5,1.5,0,1,1,1.5,213,1.5,1.5,0,0,1,0,211.5Zm238-14a1.5,1.5,0,1,1,1.5,1.5A1.5,1.5,0,0,1,238,197.5Zm-14,0a1.5,1.5,0,1,1,1.5,1.5A1.5,1.5,0,0,1,224,197.5Zm-14,0a1.5,1.5,0,1,1,1.5,1.5A1.5,1.5,0,0,1,210,197.5Zm-14,0a1.5,1.5,0,1,1,1.5,1.5A1.5,1.5,0,0,1,196,197.5Zm-14,0a1.5,1.5,0,1,1,1.5,1.5A1.5,1.5,0,0,1,182,197.5Zm-14,0a1.5,1.5,0,1,1,1.5,1.5A1.5,1.5,0,0,1,168,197.5Zm-14,0a1.5,1.5,0,1,1,1.5,1.5A1.5,1.5,0,0,1,154,197.5Zm-14,0a1.5,1.5,0,1,1,1.5,1.5A1.5,1.5,0,0,1,140,197.5Zm-14,0a1.5,1.5,0,1,1,1.5,1.5A1.5,1.5,0,0,1,126,197.5Zm-14,0a1.5,1.5,0,1,1,1.5,1.5A1.5,1.5,0,0,1,112,197.5Zm-14,0a1.5,1.5,0,1,1,1.5,1.5A1.5,1.5,0,0,1,98,197.5Zm-14,0a1.5,1.5,0,1,1,1.5,1.5A1.5,1.5,0,0,1,84,197.5Zm-14,0a1.5,1.5,0,1,1,1.5,1.5A1.5,1.5,0,0,1,70,197.5Zm-14,0a1.5,1.5,0,1,1,1.5,1.5A1.5,1.5,0,0,1,56,197.5Zm-14,0a1.5,1.5,0,1,1,1.5,1.5A1.5,1.5,0,0,1,42,197.5Zm-14,0a1.5,1.5,0,1,1,1.5,1.5A1.5,1.5,0,0,1,28,197.5Zm-14,0a1.5,1.5,0,1,1,1.5,1.5A1.5,1.5,0,0,1,14,197.5Zm-14,0A1.5,1.5,0,1,1,1.5,199,1.5,1.5,0,0,1,0,197.5Zm238-14a1.5,1.5,0,1,1,1.5,1.5A1.5,1.5,0,0,1,238,183.5Zm-14,0a1.5,1.5,0,1,1,1.5,1.5A1.5,1.5,0,0,1,224,183.5Zm-14,0a1.5,1.5,0,1,1,1.5,1.5A1.5,1.5,0,0,1,210,183.5Zm-14,0a1.5,1.5,0,1,1,1.5,1.5A1.5,1.5,0,0,1,196,183.5Zm-14,0a1.5,1.5,0,1,1,1.5,1.5A1.5,1.5,0,0,1,182,183.5Zm-14,0a1.5,1.5,0,1,1,1.5,1.5A1.5,1.5,0,0,1,168,183.5Zm-14,0a1.5,1.5,0,1,1,1.5,1.5A1.5,1.5,0,0,1,154,183.5Zm-14,0a1.5,1.5,0,1,1,1.5,1.5A1.5,1.5,0,0,1,140,183.5Zm-14,0a1.5,1.5,0,1,1,1.5,1.5A1.5,1.5,0,0,1,126,183.5Zm-14,0a1.5,1.5,0,1,1,1.5,1.5A1.5,1.5,0,0,1,112,183.5Zm-14,0a1.5,1.5,0,1,1,1.5,1.5A1.5,1.5,0,0,1,98,183.5Zm-14,0a1.5,1.5,0,1,1,1.5,1.5A1.5,1.5,0,0,1,84,183.5Zm-14,0a1.5,1.5,0,1,1,1.5,1.5A1.5,1.5,0,0,1,70,183.5Zm-14,0a1.5,1.5,0,1,1,1.5,1.5A1.5,1.5,0,0,1,56,183.5Zm-14,0a1.5,1.5,0,1,1,1.5,1.5A1.5,1.5,0,0,1,42,183.5Zm-14,0a1.5,1.5,0,1,1,1.5,1.5A1.5,1.5,0,0,1,28,183.5Zm-14,0a1.5,1.5,0,1,1,1.5,1.5A1.5,1.5,0,0,1,14,183.5Zm-14,0A1.5,1.5,0,1,1,1.5,185,1.5,1.5,0,0,1,0,183.5Zm238-14a1.5,1.5,0,1,1,1.5,1.5A1.5,1.5,0,0,1,238,169.5Zm-14,0a1.5,1.5,0,1,1,1.5,1.5A1.5,1.5,0,0,1,224,169.5Zm-14,0a1.5,1.5,0,1,1,1.5,1.5A1.5,1.5,0,0,1,210,169.5Zm-14,0a1.5,1.5,0,1,1,1.5,1.5A1.5,1.5,0,0,1,196,169.5Zm-14,0a1.5,1.5,0,1,1,1.5,1.5A1.5,1.5,0,0,1,182,169.5Zm-14,0a1.5,1.5,0,1,1,1.5,1.5A1.5,1.5,0,0,1,168,169.5Zm-14,0a1.5,1.5,0,1,1,1.5,1.5A1.5,1.5,0,0,1,154,169.5Zm-14,0a1.5,1.5,0,1,1,1.5,1.5A1.5,1.5,0,0,1,140,169.5Zm-14,0a1.5,1.5,0,1,1,1.5,1.5A1.5,1.5,0,0,1,126,169.5Zm-14,0a1.5,1.5,0,1,1,1.5,1.5A1.5,1.5,0,0,1,112,169.5Zm-14,0a1.5,1.5,0,1,1,1.5,1.5A1.5,1.5,0,0,1,98,169.5Zm-14,0a1.5,1.5,0,1,1,1.5,1.5A1.5,1.5,0,0,1,84,169.5Zm-14,0a1.5,1.5,0,1,1,1.5,1.5A1.5,1.5,0,0,1,70,169.5Zm-14,0a1.5,1.5,0,1,1,1.5,1.5A1.5,1.5,0,0,1,56,169.5Zm-14,0a1.5,1.5,0,1,1,1.5,1.5A1.5,1.5,0,0,1,42,169.5Zm-14,0a1.5,1.5,0,1,1,1.5,1.5A1.5,1.5,0,0,1,28,169.5Zm-14,0a1.5,1.5,0,1,1,1.5,1.5A1.5,1.5,0,0,1,14,169.5Zm-14,0A1.5,1.5,0,1,1,1.5,171,1.5,1.5,0,0,1,0,169.5Zm238-14a1.5,1.5,0,1,1,1.5,1.5A1.5,1.5,0,0,1,238,155.5Zm-14,0a1.5,1.5,0,1,1,1.5,1.5A1.5,1.5,0,0,1,224,155.5Zm-14,0a1.5,1.5,0,1,1,1.5,1.5A1.5,1.5,0,0,1,210,155.5Zm-14,0a1.5,1.5,0,1,1,1.5,1.5A1.5,1.5,0,0,1,196,155.5Zm-14,0a1.5,1.5,0,1,1,1.5,1.5A1.5,1.5,0,0,1,182,155.5Zm-14,0a1.5,1.5,0,1,1,1.5,1.5A1.5,1.5,0,0,1,168,155.5Zm-14,0a1.5,1.5,0,1,1,1.5,1.5A1.5,1.5,0,0,1,154,155.5Zm-14,0a1.5,1.5,0,1,1,1.5,1.5A1.5,1.5,0,0,1,140,155.5Zm-14,0a1.5,1.5,0,1,1,1.5,1.5A1.5,1.5,0,0,1,126,155.5Zm-14,0a1.5,1.5,0,1,1,1.5,1.5A1.5,1.5,0,0,1,112,155.5Zm-14,0a1.5,1.5,0,1,1,1.5,1.5A1.5,1.5,0,0,1,98,155.5Zm-14,0a1.5,1.5,0,1,1,1.5,1.5A1.5,1.5,0,0,1,84,155.5Zm-14,0a1.5,1.5,0,1,1,1.5,1.5A1.5,1.5,0,0,1,70,155.5Zm-14,0a1.5,1.5,0,1,1,1.5,1.5A1.5,1.5,0,0,1,56,155.5Zm-14,0a1.5,1.5,0,1,1,1.5,1.5A1.5,1.5,0,0,1,42,155.5Zm-14,0a1.5,1.5,0,1,1,1.5,1.5A1.5,1.5,0,0,1,28,155.5Zm-14,0a1.5,1.5,0,1,1,1.5,1.5A1.5,1.5,0,0,1,14,155.5Zm-14,0A1.5,1.5,0,1,1,1.5,157,1.5,1.5,0,0,1,0,155.5Zm238-14a1.5,1.5,0,1,1,1.5,1.5A1.5,1.5,0,0,1,238,141.5Zm-14,0a1.5,1.5,0,1,1,1.5,1.5A1.5,1.5,0,0,1,224,141.5Zm-14,0a1.5,1.5,0,1,1,1.5,1.5A1.5,1.5,0,0,1,210,141.5Zm-14,0a1.5,1.5,0,1,1,1.5,1.5A1.5,1.5,0,0,1,196,141.5Zm-14,0a1.5,1.5,0,1,1,1.5,1.5A1.5,1.5,0,0,1,182,141.5Zm-14,0a1.5,1.5,0,1,1,1.5,1.5A1.5,1.5,0,0,1,168,141.5Zm-14,0a1.5,1.5,0,1,1,1.5,1.5A1.5,1.5,0,0,1,154,141.5Zm-14,0a1.5,1.5,0,1,1,1.5,1.5A1.5,1.5,0,0,1,140,141.5Zm-14,0a1.5,1.5,0,1,1,1.5,1.5A1.5,1.5,0,0,1,126,141.5Zm-14,0a1.5,1.5,0,1,1,1.5,1.5A1.5,1.5,0,0,1,112,141.5Zm-14,0a1.5,1.5,0,1,1,1.5,1.5A1.5,1.5,0,0,1,98,141.5Zm-14,0a1.5,1.5,0,1,1,1.5,1.5A1.5,1.5,0,0,1,84,141.5Zm-14,0a1.5,1.5,0,1,1,1.5,1.5A1.5,1.5,0,0,1,70,141.5Zm-14,0a1.5,1.5,0,1,1,1.5,1.5A1.5,1.5,0,0,1,56,141.5Zm-14,0a1.5,1.5,0,1,1,1.5,1.5A1.5,1.5,0,0,1,42,141.5Zm-14,0a1.5,1.5,0,1,1,1.5,1.5A1.5,1.5,0,0,1,28,141.5Zm-14,0a1.5,1.5,0,1,1,1.5,1.5A1.5,1.5,0,0,1,14,141.5Zm-14,0A1.5,1.5,0,1,1,1.5,143,1.5,1.5,0,0,1,0,141.5Zm238-14a1.5,1.5,0,1,1,1.5,1.5A1.5,1.5,0,0,1,238,127.5Zm-14,0a1.5,1.5,0,1,1,1.5,1.5A1.5,1.5,0,0,1,224,127.5Zm-14,0a1.5,1.5,0,1,1,1.5,1.5A1.5,1.5,0,0,1,210,127.5Zm-14,0a1.5,1.5,0,1,1,1.5,1.5A1.5,1.5,0,0,1,196,127.5Zm-14,0a1.5,1.5,0,1,1,1.5,1.5A1.5,1.5,0,0,1,182,127.5Zm-14,0a1.5,1.5,0,1,1,1.5,1.5A1.5,1.5,0,0,1,168,127.5Zm-14,0a1.5,1.5,0,1,1,1.5,1.5A1.5,1.5,0,0,1,154,127.5Zm-14,0a1.5,1.5,0,1,1,1.5,1.5A1.5,1.5,0,0,1,140,127.5Zm-14,0a1.5,1.5,0,1,1,1.5,1.5A1.5,1.5,0,0,1,126,127.5Zm-14,0a1.5,1.5,0,1,1,1.5,1.5A1.5,1.5,0,0,1,112,127.5Zm-14,0a1.5,1.5,0,1,1,1.5,1.5A1.5,1.5,0,0,1,98,127.5Zm-14,0a1.5,1.5,0,1,1,1.5,1.5A1.5,1.5,0,0,1,84,127.5Zm-14,0a1.5,1.5,0,1,1,1.5,1.5A1.5,1.5,0,0,1,70,127.5Zm-14,0a1.5,1.5,0,1,1,1.5,1.5A1.5,1.5,0,0,1,56,127.5Zm-14,0a1.5,1.5,0,1,1,1.5,1.5A1.5,1.5,0,0,1,42,127.5Zm-14,0a1.5,1.5,0,1,1,1.5,1.5A1.5,1.5,0,0,1,28,127.5Zm-14,0a1.5,1.5,0,1,1,1.5,1.5A1.5,1.5,0,0,1,14,127.5Zm-14,0A1.5,1.5,0,1,1,1.5,129,1.5,1.5,0,0,1,0,127.5Zm238-14a1.5,1.5,0,1,1,1.5,1.5A1.5,1.5,0,0,1,238,113.5Zm-14,0a1.5,1.5,0,1,1,1.5,1.5A1.5,1.5,0,0,1,224,113.5Zm-14,0a1.5,1.5,0,1,1,1.5,1.5A1.5,1.5,0,0,1,210,113.5Zm-14,0a1.5,1.5,0,1,1,1.5,1.5A1.5,1.5,0,0,1,196,113.5Zm-14,0a1.5,1.5,0,1,1,1.5,1.5A1.5,1.5,0,0,1,182,113.5Zm-14,0a1.5,1.5,0,1,1,1.5,1.5A1.5,1.5,0,0,1,168,113.5Zm-14,0a1.5,1.5,0,1,1,1.5,1.5A1.5,1.5,0,0,1,154,113.5Zm-14,0a1.5,1.5,0,1,1,1.5,1.5A1.5,1.5,0,0,1,140,113.5Zm-14,0a1.5,1.5,0,1,1,1.5,1.5A1.5,1.5,0,0,1,126,113.5Zm-14,0a1.5,1.5,0,1,1,1.5,1.5A1.5,1.5,0,0,1,112,113.5Zm-14,0a1.5,1.5,0,1,1,1.5,1.5A1.5,1.5,0,0,1,98,113.5Zm-14,0a1.5,1.5,0,1,1,1.5,1.5A1.5,1.5,0,0,1,84,113.5Zm-14,0a1.5,1.5,0,1,1,1.5,1.5A1.5,1.5,0,0,1,70,113.5Zm-14,0a1.5,1.5,0,1,1,1.5,1.5A1.5,1.5,0,0,1,56,113.5Zm-14,0a1.5,1.5,0,1,1,1.5,1.5A1.5,1.5,0,0,1,42,113.5Zm-14,0a1.5,1.5,0,1,1,1.5,1.5A1.5,1.5,0,0,1,28,113.5Zm-14,0a1.5,1.5,0,1,1,1.5,1.5A1.5,1.5,0,0,1,14,113.5Zm-14,0A1.5,1.5,0,1,1,1.5,115,1.5,1.5,0,0,1,0,113.5Zm238-14a1.5,1.5,0,1,1,1.5,1.5A1.5,1.5,0,0,1,238,99.5Zm-14,0a1.5,1.5,0,1,1,1.5,1.5A1.5,1.5,0,0,1,224,99.5Zm-14,0a1.5,1.5,0,1,1,1.5,1.5A1.5,1.5,0,0,1,210,99.5Zm-14,0a1.5,1.5,0,1,1,1.5,1.5A1.5,1.5,0,0,1,196,99.5Zm-14,0a1.5,1.5,0,1,1,1.5,1.5A1.5,1.5,0,0,1,182,99.5Zm-14,0a1.5,1.5,0,1,1,1.5,1.5A1.5,1.5,0,0,1,168,99.5Zm-14,0a1.5,1.5,0,1,1,1.5,1.5A1.5,1.5,0,0,1,154,99.5Zm-14,0a1.5,1.5,0,1,1,1.5,1.5A1.5,1.5,0,0,1,140,99.5Zm-14,0a1.5,1.5,0,1,1,1.5,1.5A1.5,1.5,0,0,1,126,99.5Zm-14,0a1.5,1.5,0,1,1,1.5,1.5A1.5,1.5,0,0,1,112,99.5Zm-14,0a1.5,1.5,0,1,1,1.5,1.5A1.5,1.5,0,0,1,98,99.5Zm-14,0a1.5,1.5,0,1,1,1.5,1.5A1.5,1.5,0,0,1,84,99.5Zm-14,0a1.5,1.5,0,1,1,1.5,1.5A1.5,1.5,0,0,1,70,99.5Zm-14,0a1.5,1.5,0,1,1,1.5,1.5A1.5,1.5,0,0,1,56,99.5Zm-14,0a1.5,1.5,0,1,1,1.5,1.5A1.5,1.5,0,0,1,42,99.5Zm-14,0a1.5,1.5,0,1,1,1.5,1.5A1.5,1.5,0,0,1,28,99.5Zm-14,0a1.5,1.5,0,1,1,1.5,1.5A1.5,1.5,0,0,1,14,99.5Zm-14,0A1.5,1.5,0,1,1,1.5,101,1.5,1.5,0,0,1,0,99.5Zm238-14a1.5,1.5,0,1,1,1.5,1.5A1.5,1.5,0,0,1,238,85.5Zm-14,0a1.5,1.5,0,1,1,1.5,1.5A1.5,1.5,0,0,1,224,85.5Zm-14,0a1.5,1.5,0,1,1,1.5,1.5A1.5,1.5,0,0,1,210,85.5Zm-14,0a1.5,1.5,0,1,1,1.5,1.5A1.5,1.5,0,0,1,196,85.5Zm-14,0a1.5,1.5,0,1,1,1.5,1.5A1.5,1.5,0,0,1,182,85.5Zm-14,0a1.5,1.5,0,1,1,1.5,1.5A1.5,1.5,0,0,1,168,85.5Zm-14,0a1.5,1.5,0,1,1,1.5,1.5A1.5,1.5,0,0,1,154,85.5Zm-14,0a1.5,1.5,0,1,1,1.5,1.5A1.5,1.5,0,0,1,140,85.5Zm-14,0a1.5,1.5,0,1,1,1.5,1.5A1.5,1.5,0,0,1,126,85.5Zm-14,0a1.5,1.5,0,1,1,1.5,1.5A1.5,1.5,0,0,1,112,85.5Zm-14,0A1.5,1.5,0,1,1,99.5,87,1.5,1.5,0,0,1,98,85.5Zm-14,0A1.5,1.5,0,1,1,85.5,87,1.5,1.5,0,0,1,84,85.5Zm-14,0A1.5,1.5,0,1,1,71.5,87,1.5,1.5,0,0,1,70,85.5Zm-14,0A1.5,1.5,0,1,1,57.5,87,1.5,1.5,0,0,1,56,85.5Zm-14,0A1.5,1.5,0,1,1,43.5,87,1.5,1.5,0,0,1,42,85.5Zm-14,0A1.5,1.5,0,1,1,29.5,87,1.5,1.5,0,0,1,28,85.5Zm-14,0A1.5,1.5,0,1,1,15.5,87,1.5,1.5,0,0,1,14,85.5Zm-14,0A1.5,1.5,0,1,1,1.5,87,1.5,1.5,0,0,1,0,85.5Zm238-14a1.5,1.5,0,1,1,1.5,1.5A1.5,1.5,0,0,1,238,71.5Zm-14,0a1.5,1.5,0,1,1,1.5,1.5A1.5,1.5,0,0,1,224,71.5Zm-14,0a1.5,1.5,0,1,1,1.5,1.5A1.5,1.5,0,0,1,210,71.5Zm-14,0a1.5,1.5,0,1,1,1.5,1.5A1.5,1.5,0,0,1,196,71.5Zm-14,0a1.5,1.5,0,1,1,1.5,1.5A1.5,1.5,0,0,1,182,71.5Zm-14,0a1.5,1.5,0,1,1,1.5,1.5A1.5,1.5,0,0,1,168,71.5Zm-14,0a1.5,1.5,0,1,1,1.5,1.5A1.5,1.5,0,0,1,154,71.5Zm-14,0a1.5,1.5,0,1,1,1.5,1.5A1.5,1.5,0,0,1,140,71.5Zm-14,0a1.5,1.5,0,1,1,1.5,1.5A1.5,1.5,0,0,1,126,71.5Zm-14,0a1.5,1.5,0,1,1,1.5,1.5A1.5,1.5,0,0,1,112,71.5Zm-14,0A1.5,1.5,0,1,1,99.5,73,1.5,1.5,0,0,1,98,71.5Zm-14,0A1.5,1.5,0,1,1,85.5,73,1.5,1.5,0,0,1,84,71.5Zm-14,0A1.5,1.5,0,1,1,71.5,73,1.5,1.5,0,0,1,70,71.5Zm-14,0A1.5,1.5,0,1,1,57.5,73,1.5,1.5,0,0,1,56,71.5Zm-14,0A1.5,1.5,0,1,1,43.5,73,1.5,1.5,0,0,1,42,71.5Zm-14,0A1.5,1.5,0,1,1,29.5,73,1.5,1.5,0,0,1,28,71.5Zm-14,0A1.5,1.5,0,1,1,15.5,73,1.5,1.5,0,0,1,14,71.5Zm-14,0A1.5,1.5,0,1,1,1.5,73,1.5,1.5,0,0,1,0,71.5Zm238-14a1.5,1.5,0,1,1,1.5,1.5A1.5,1.5,0,0,1,238,57.5Zm-14,0a1.5,1.5,0,1,1,1.5,1.5A1.5,1.5,0,0,1,224,57.5Zm-14,0a1.5,1.5,0,1,1,1.5,1.5A1.5,1.5,0,0,1,210,57.5Zm-14,0a1.5,1.5,0,1,1,1.5,1.5A1.5,1.5,0,0,1,196,57.5Zm-14,0a1.5,1.5,0,1,1,1.5,1.5A1.5,1.5,0,0,1,182,57.5Zm-14,0a1.5,1.5,0,1,1,1.5,1.5A1.5,1.5,0,0,1,168,57.5Zm-14,0a1.5,1.5,0,1,1,1.5,1.5A1.5,1.5,0,0,1,154,57.5Zm-14,0a1.5,1.5,0,1,1,1.5,1.5A1.5,1.5,0,0,1,140,57.5Zm-14,0a1.5,1.5,0,1,1,1.5,1.5A1.5,1.5,0,0,1,126,57.5Zm-14,0a1.5,1.5,0,1,1,1.5,1.5A1.5,1.5,0,0,1,112,57.5Zm-14,0A1.5,1.5,0,1,1,99.5,59,1.5,1.5,0,0,1,98,57.5Zm-14,0A1.5,1.5,0,1,1,85.5,59,1.5,1.5,0,0,1,84,57.5Zm-14,0A1.5,1.5,0,1,1,71.5,59,1.5,1.5,0,0,1,70,57.5Zm-14,0A1.5,1.5,0,1,1,57.5,59,1.5,1.5,0,0,1,56,57.5Zm-14,0A1.5,1.5,0,1,1,43.5,59,1.5,1.5,0,0,1,42,57.5Zm-14,0A1.5,1.5,0,1,1,29.5,59,1.5,1.5,0,0,1,28,57.5Zm-14,0A1.5,1.5,0,1,1,15.5,59,1.5,1.5,0,0,1,14,57.5Zm-14,0A1.5,1.5,0,1,1,1.5,59,1.5,1.5,0,0,1,0,57.5Zm238-14a1.5,1.5,0,1,1,1.5,1.5A1.5,1.5,0,0,1,238,43.5Zm-14,0a1.5,1.5,0,1,1,1.5,1.5A1.5,1.5,0,0,1,224,43.5Zm-14,0a1.5,1.5,0,1,1,1.5,1.5A1.5,1.5,0,0,1,210,43.5Zm-14,0a1.5,1.5,0,1,1,1.5,1.5A1.5,1.5,0,0,1,196,43.5Zm-14,0a1.5,1.5,0,1,1,1.5,1.5A1.5,1.5,0,0,1,182,43.5Zm-14,0a1.5,1.5,0,1,1,1.5,1.5A1.5,1.5,0,0,1,168,43.5Zm-14,0a1.5,1.5,0,1,1,1.5,1.5A1.5,1.5,0,0,1,154,43.5Zm-14,0a1.5,1.5,0,1,1,1.5,1.5A1.5,1.5,0,0,1,140,43.5Zm-14,0a1.5,1.5,0,1,1,1.5,1.5A1.5,1.5,0,0,1,126,43.5Zm-14,0a1.5,1.5,0,1,1,1.5,1.5A1.5,1.5,0,0,1,112,43.5Zm-14,0A1.5,1.5,0,1,1,99.5,45,1.5,1.5,0,0,1,98,43.5Zm-14,0A1.5,1.5,0,1,1,85.5,45,1.5,1.5,0,0,1,84,43.5Zm-14,0A1.5,1.5,0,1,1,71.5,45,1.5,1.5,0,0,1,70,43.5Zm-14,0A1.5,1.5,0,1,1,57.5,45,1.5,1.5,0,0,1,56,43.5Zm-14,0A1.5,1.5,0,1,1,43.5,45,1.5,1.5,0,0,1,42,43.5Zm-14,0A1.5,1.5,0,1,1,29.5,45,1.5,1.5,0,0,1,28,43.5Zm-14,0A1.5,1.5,0,1,1,15.5,45,1.5,1.5,0,0,1,14,43.5Zm-14,0A1.5,1.5,0,1,1,1.5,45,1.5,1.5,0,0,1,0,43.5Zm238-14a1.5,1.5,0,1,1,1.5,1.5A1.5,1.5,0,0,1,238,29.5Zm-14,0a1.5,1.5,0,1,1,1.5,1.5A1.5,1.5,0,0,1,224,29.5Zm-14,0a1.5,1.5,0,1,1,1.5,1.5A1.5,1.5,0,0,1,210,29.5Zm-14,0a1.5,1.5,0,1,1,1.5,1.5A1.5,1.5,0,0,1,196,29.5Zm-14,0a1.5,1.5,0,1,1,1.5,1.5A1.5,1.5,0,0,1,182,29.5Zm-14,0a1.5,1.5,0,1,1,1.5,1.5A1.5,1.5,0,0,1,168,29.5Zm-14,0a1.5,1.5,0,1,1,1.5,1.5A1.5,1.5,0,0,1,154,29.5Zm-14,0a1.5,1.5,0,1,1,1.5,1.5A1.5,1.5,0,0,1,140,29.5Zm-14,0a1.5,1.5,0,1,1,1.5,1.5A1.5,1.5,0,0,1,126,29.5Zm-14,0a1.5,1.5,0,1,1,1.5,1.5A1.5,1.5,0,0,1,112,29.5Zm-14,0A1.5,1.5,0,1,1,99.5,31,1.5,1.5,0,0,1,98,29.5Zm-14,0A1.5,1.5,0,1,1,85.5,31,1.5,1.5,0,0,1,84,29.5Zm-14,0A1.5,1.5,0,1,1,71.5,31,1.5,1.5,0,0,1,70,29.5Zm-14,0A1.5,1.5,0,1,1,57.5,31,1.5,1.5,0,0,1,56,29.5Zm-14,0A1.5,1.5,0,1,1,43.5,31,1.5,1.5,0,0,1,42,29.5Zm-14,0A1.5,1.5,0,1,1,29.5,31,1.5,1.5,0,0,1,28,29.5Zm-14,0A1.5,1.5,0,1,1,15.5,31,1.5,1.5,0,0,1,14,29.5Zm-14,0A1.5,1.5,0,1,1,1.5,31,1.5,1.5,0,0,1,0,29.5Zm238-14a1.5,1.5,0,1,1,1.5,1.5A1.5,1.5,0,0,1,238,15.5Zm-14,0a1.5,1.5,0,1,1,1.5,1.5A1.5,1.5,0,0,1,224,15.5Zm-14,0a1.5,1.5,0,1,1,1.5,1.5A1.5,1.5,0,0,1,210,15.5Zm-14,0a1.5,1.5,0,1,1,1.5,1.5A1.5,1.5,0,0,1,196,15.5Zm-14,0a1.5,1.5,0,1,1,1.5,1.5A1.5,1.5,0,0,1,182,15.5Zm-14,0a1.5,1.5,0,1,1,1.5,1.5A1.5,1.5,0,0,1,168,15.5Zm-14,0a1.5,1.5,0,1,1,1.5,1.5A1.5,1.5,0,0,1,154,15.5Zm-14,0a1.5,1.5,0,1,1,1.5,1.5A1.5,1.5,0,0,1,140,15.5Zm-14,0a1.5,1.5,0,1,1,1.5,1.5A1.5,1.5,0,0,1,126,15.5Zm-14,0a1.5,1.5,0,1,1,1.5,1.5A1.5,1.5,0,0,1,112,15.5Zm-14,0A1.5,1.5,0,1,1,99.5,17,1.5,1.5,0,0,1,98,15.5Zm-14,0A1.5,1.5,0,1,1,85.5,17,1.5,1.5,0,0,1,84,15.5Zm-14,0A1.5,1.5,0,1,1,71.5,17,1.5,1.5,0,0,1,70,15.5Zm-14,0A1.5,1.5,0,1,1,57.5,17,1.5,1.5,0,0,1,56,15.5Zm-14,0A1.5,1.5,0,1,1,43.5,17,1.5,1.5,0,0,1,42,15.5Zm-14,0A1.5,1.5,0,1,1,29.5,17,1.5,1.5,0,0,1,28,15.5Zm-14,0A1.5,1.5,0,1,1,15.5,17,1.5,1.5,0,0,1,14,15.5Zm-14,0A1.5,1.5,0,1,1,1.5,17,1.5,1.5,0,0,1,0,15.5Zm238-14A1.5,1.5,0,1,1,239.5,3,1.5,1.5,0,0,1,238,1.5Zm-14,0A1.5,1.5,0,1,1,225.5,3,1.5,1.5,0,0,1,224,1.5Zm-14,0A1.5,1.5,0,1,1,211.5,3,1.5,1.5,0,0,1,210,1.5Zm-14,0A1.5,1.5,0,1,1,197.5,3,1.5,1.5,0,0,1,196,1.5Zm-14,0A1.5,1.5,0,1,1,183.5,3,1.5,1.5,0,0,1,182,1.5Zm-14,0A1.5,1.5,0,1,1,169.5,3,1.5,1.5,0,0,1,168,1.5Zm-14,0A1.5,1.5,0,1,1,155.5,3,1.5,1.5,0,0,1,154,1.5Zm-14,0A1.5,1.5,0,1,1,141.5,3,1.5,1.5,0,0,1,140,1.5Zm-14,0A1.5,1.5,0,1,1,127.5,3,1.5,1.5,0,0,1,126,1.5Zm-14,0A1.5,1.5,0,1,1,113.5,3,1.5,1.5,0,0,1,112,1.5Zm-14,0A1.5,1.5,0,1,1,99.5,3,1.5,1.5,0,0,1,98,1.5Zm-14,0A1.5,1.5,0,1,1,85.5,3,1.5,1.5,0,0,1,84,1.5Zm-14,0A1.5,1.5,0,1,1,71.5,3,1.5,1.5,0,0,1,70,1.5Zm-14,0A1.5,1.5,0,1,1,57.5,3,1.5,1.5,0,0,1,56,1.5Zm-14,0A1.5,1.5,0,1,1,43.5,3,1.5,1.5,0,0,1,42,1.5Zm-14,0A1.5,1.5,0,1,1,29.5,3,1.5,1.5,0,0,1,28,1.5Zm-14,0A1.5,1.5,0,1,1,15.5,3,1.5,1.5,0,0,1,14,1.5ZM0,1.5A1.5,1.5,0,1,1,1.5,3,1.5,1.5,0,0,1,0,1.5Z" fill="#c4c4c4"/>
</svg>
